PathFileType	4	(X/Y/Z)	C:\Users\WrightLab\Desktop\Jo\P1_boxCal16.trc
DataRate	CameraRate	NumFrames	NumMarkers	Units	OrigDataRate	OrigDataStartFrame	OrigNumFrames
100.00	100.00	      33	19	mm	100.00	1	      1146
Frame#	Time	Headset_Front			Headset_Back			Headset_Left			Headset_Right			Left_Shoulder			Right_Shoulder			Sternum			C7			Left Elbow			Right Elbow			Left Wrist			Right Wrist			Left ASIS			Right ASIS			S2			Left Knee			Right Knee			Left Ankle			Right Ankle			
		X1	Y1	Z1	X2	Y2	Z2	X3	Y3	Z3	X4	Y4	Z4	X5	Y5	Z5	X6	Y6	Z6	X7	Y7	Z7	X8	Y8	Z8	X9	Y9	Z9	X10	Y10	Z10	X11	Y11	Z11	X12	Y12	Z12	X13	Y13	Z13	X14	Y14	Z14	X15	Y15	Z15	X16	Y16	Z16	X17	Y17	Z17	X18	Y18	Z18	X19	Y19	Z19	

1	0.000							-369.02026	1211.94653	-1564.32349	-9.35936	61.19383	-1694.48584	109.67358	910.01855	-1530.18054	-10.94033	402.97321	-1560.73877													-387.82666	440.97961	-1471.79175	10.34697	1226.43555	-1502.48035				139.09679	719.84991	-1433.35425	-107.71198	829.53241	-1399.68237	-125.59003	856.03540	-1729.21570				-301.76993	826.37274	-1455.44873	-450.18115	75.34263	-1413.12769	
2	0.010							-373.00452	1211.80322	-1561.46033	-9.35936	61.19383	-1694.48584	106.58994	908.99744	-1524.18323	-12.50055	402.56952	-1557.10266													-392.14291	439.10800	-1470.17505	7.55197	1225.60730	-1497.10693				136.26134	720.28064	-1428.67993	-110.63736	828.54962	-1392.84021	-128.66910	855.27673	-1724.62708				-305.45932	824.03046	-1448.92944	-456.02203	73.70106	-1410.12170	
3	0.020							-376.75729	1210.31616	-1555.83826	-9.40810	61.66953	-1693.45276	103.48267	908.86053	-1519.57568	-15.34291	401.77060	-1554.29919													-395.73718	437.79929	-1470.17810	3.27890	1225.68091	-1493.85706	131.32100	717.84607	-1421.86218				-114.19472	827.20459	-1387.00781	-132.00339	854.27252	-1719.71313				-308.38684	823.82886	-1447.25903	-460.54742	77.04990	-1398.59314	
4	0.030							-380.16614	1208.78052	-1550.39832	-9.44759	63.89084	-1693.20227	100.10871	908.63904	-1514.80835	-17.67490	400.73276	-1550.27148													-399.66690	438.18509	-1459.78979	-0.75056	1223.83911	-1485.79932	128.86259	718.47040	-1416.28149				-118.12545	826.58533	-1386.10754	-135.46335	853.69855	-1714.94788				-312.77084	824.72723	-1438.22827	-464.92166	75.50471	-1396.51794	
5	0.040										-8.73022	65.69354	-1694.13647	96.28850	907.66724	-1508.46924	-19.62518	400.83356	-1547.98254													-403.17285	439.10269	-1449.87488	-4.34258	1223.55505	-1481.44775				-122.17094	825.93103	-1380.74463				-139.12715	852.96509	-1710.09119				-315.97186	821.94263	-1437.08423	-468.26331	72.93998	-1399.60217	
6	0.050							-388.49869	1208.13367	-1543.79871	-8.95867	67.49851	-1693.26428	92.71719	907.93457	-1504.50061	-22.50429	400.19821	-1544.45447													-407.39688	437.05069	-1452.51953	-8.87071	1222.95154	-1475.99048							-124.89881	824.96887	-1376.11743	-143.01097	852.03088	-1704.88989	119.97675	716.78705	-1405.35107	-319.13892	820.81866	-1432.50500				
7	0.060							-392.61887	1206.72290	-1538.19507	-9.05134	67.76596	-1692.74426	88.74339	907.24255	-1498.99194	-25.08318	399.65866	-1540.41919													-411.83307	434.90625	-1445.19861	-13.16466	1221.79712	-1469.49902										-147.07289	851.43353	-1700.03381	115.77629	716.35101	-1401.51062	-324.91290	820.67133	-1421.66394				
8	0.070							-396.86951	1206.07935	-1534.11060	-10.08265	68.02074	-1692.11890	84.45232	906.58624	-1492.73889	-28.97170	399.09610	-1536.77344													-414.40363	435.02426	-1439.33337	-18.12547	1222.81567	-1467.61377							-133.55811	824.02087	-1366.86914	-151.32661	850.48712	-1694.80164	110.89240	715.66223	-1394.53345	-328.61389	820.93683	-1417.96289				
9	0.080							-401.64478	1204.86670	-1528.34180	-10.21879	68.98141	-1690.06677	80.16074	906.58795	-1488.18640	-30.81677	398.69836	-1533.98425													-417.49377	432.69595	-1435.30505	-22.36581	1221.66895	-1460.60681							-137.54607	823.27344	-1361.26196	-155.76762	850.17407	-1690.09998	107.34066	715.71265	-1389.65430	-331.69370	818.32941	-1416.20264				
10	0.090							-406.04510	1204.07959	-1523.70093	-10.65390	70.39507	-1689.60352	72.83161	905.25006	-1476.10376	-34.25053	398.65320	-1531.27991													-423.32480	430.75772	-1430.33765	-27.14687	1221.09167	-1454.82288							-141.40857	821.51898	-1353.61804	-160.31839	849.27197	-1684.65723	103.26810	714.82080	-1385.22668	-336.63931	818.13806	-1410.41235				
11	0.100							-411.25470	1203.75049	-1519.56689	-10.96225	72.90083	-1689.21448	69.04507	905.39282	-1473.75708	-37.05489	398.18286	-1526.53931													-426.58542	429.15524	-1426.99646	-32.58005	1221.34644	-1450.80432							-146.54788	821.40186	-1348.60803	-164.92149	848.25958	-1678.80566	98.20382	713.38373	-1378.69678	-342.45517	818.23334	-1400.10986				
12	0.110							-415.84363	1202.54480	-1513.63574	-11.07071	74.79652	-1688.74500	65.68253	905.12860	-1470.66882	-41.04827	398.66672	-1521.77441													-429.52969	428.77179	-1419.33691	-37.24939	1220.06421	-1443.14368							-151.03888	819.95020	-1346.28601	-169.72812	847.59210	-1673.20129	94.83724	713.46454	-1374.39026	-346.94516	816.97107	-1395.56641				
13	0.120							-420.83646	1202.66467	-1510.54077	-12.03367	77.37656	-1687.40186	60.31234	904.42426	-1464.37683	-43.76607	398.35477	-1518.00049													-433.22272	429.02017	-1407.39038	-42.47820	1219.81360	-1437.71704							-157.30838	821.33380	-1331.57813	-174.95633	847.17224	-1668.26001	86.61747	714.02759	-1369.80298	-352.53220	817.40924	-1389.73303				
14	0.130							-426.17630	1201.18896	-1503.20300	-13.22309	78.51675	-1684.91150	55.19896	905.20703	-1460.89673	-47.33672	397.78815	-1513.49084													-436.55432	425.67740	-1408.53101	-48.20370	1220.20776	-1433.67188							-162.45975	818.22821	-1333.31506	-180.34830	846.07269	-1662.17090	81.49458	712.99451	-1367.03210	-357.25562	815.21637	-1384.42737				
15	0.140							-431.78955	1201.47510	-1499.63477	-13.79284	79.67064	-1682.83960	50.00827	904.62231	-1455.04651	-51.97105	398.26657	-1508.58948													-441.42426	424.60559	-1403.31543	-53.52949	1218.98132	-1425.42969							-167.85385	821.05737	-1322.87842	-185.96648	845.16669	-1655.52771	78.23282	716.22125	-1355.77393	-363.59045	816.54938	-1375.59912				
16	0.150							-437.54510	1201.14160	-1494.18860	-15.25869	84.75559	-1682.69653	44.01915	904.38416	-1449.30518	-55.85616	398.53485	-1503.41882													-445.26907	425.75253	-1393.24231	-59.36179	1219.45422	-1421.02686							-173.72713	818.73419	-1318.86157	-191.79257	844.68091	-1649.27722	72.59908	715.19763	-1349.65845	-369.79974	815.92444	-1367.68530				
17	0.160							-442.94833	1200.51624	-1488.08630	-14.77097	87.40646	-1679.61475	38.54107	904.40515	-1443.95166	-60.15254	397.24072	-1495.79993													-449.03839	426.74496	-1385.29895	-64.95910	1218.12402	-1411.79175							-179.86505	818.38348	-1313.89453	-197.81549	844.65515	-1643.14331	65.84697	714.22101	-1349.13635	-375.23477	815.67535	-1366.27246				
18	0.170							-448.59140	1200.14258	-1482.00110	-16.72413	89.70229	-1676.44788	32.62017	904.99432	-1439.61633	-64.50672	398.02383	-1490.12500													-454.34244	424.56226	-1389.04333	-70.50729	1218.11194	-1405.35107							-186.12097	819.63940	-1304.79004	-203.73393	844.62439	-1636.64368	62.06971	716.42059	-1340.96375	-382.03189	815.94928	-1358.05798				
19	0.180							-454.50909	1200.88330	-1477.75085	-16.54795	97.27473	-1675.40710	26.43926	905.30524	-1434.24243	-69.54404	398.28256	-1482.64758													-458.98807	426.60486	-1379.20789	-76.67323	1219.63269	-1402.00562							-192.60489	819.10608	-1298.57886	-209.62115	844.51508	-1630.22852	55.96706	715.78900	-1334.55139	-387.33911	815.14825	-1354.49451				
20	0.190							-459.99414	1200.46252	-1471.04797	-18.30598	98.82624	-1669.55554	19.78458	905.58203	-1428.48743	-73.33683	398.24460	-1474.74695													-466.37762	424.35397	-1376.46753	-82.83613	1219.18591	-1393.93481							-198.79967	819.34161	-1293.86328	-215.39406	844.95154	-1623.97156	50.50909	715.99567	-1328.83643	-393.02710	816.22815	-1351.02063				
21	0.200							-465.74667	1201.13879	-1466.22876	-18.91052	102.64039	-1664.57556	13.83615	906.43762	-1423.75427	-77.73878	398.39569	-1465.83960													-469.94614	426.50653	-1368.75256	-88.92506	1219.27747	-1386.40051							-206.16089	819.60370	-1285.61084	-221.16743	845.02142	-1617.27734	44.27514	717.02319	-1325.72632	-399.65265	815.22192	-1345.50403				
22	0.210							-471.49902	1201.91956	-1461.04919	-19.12171	107.20942	-1660.53967	7.17215	907.22314	-1418.43420	-82.31184	399.61301	-1456.68188													-477.40561	425.27472	-1364.00476	-95.34982	1220.60828	-1381.35938							-212.74673	820.58777	-1280.19519	-227.05583	845.16193	-1610.95630	38.97525	717.60437	-1320.12524	-406.18112	816.55603	-1338.14941				
23	0.220							-477.71774	1202.72473	-1455.17468	-21.58775	112.39077	-1654.30396	-1.58267	907.01868	-1408.91077	-87.10141	399.90192	-1446.56372													-482.02338	424.15643	-1358.88037	-101.20386	1220.83105	-1373.68872							-218.52625	822.75647	-1272.75757	-232.95900	846.00232	-1605.13989	31.44661	717.50452	-1316.03809	-413.04288	818.71466	-1329.07483				
24	0.230							-484.00873	1204.17200	-1450.29236	-22.27827	116.43845	-1647.33374	-5.93333	908.15967	-1406.75439	-92.38635	400.15079	-1435.86816													-488.71289	424.45319	-1359.72583	-107.29723	1221.87427	-1367.69189							-226.00098	821.67328	-1269.56177	-238.78645	846.18463	-1598.13245	25.61945	717.84631	-1309.34937							
25	0.240							-488.92847	1204.59314	-1443.68176	-25.62169	120.63901	-1638.82861	-12.72561	909.70313	-1402.57788	-97.16195	401.00119	-1424.57080													-493.30594	424.48019	-1350.93054	-113.82955	1222.75916	-1361.20105							-232.29977	823.80072	-1259.16809	-244.62215	846.61560	-1591.25232	19.38482	719.04761	-1305.65576	-426.36649	819.38971	-1318.36755				
26	0.250							-494.59976	1205.71216	-1437.69116	-27.03018	125.82833	-1630.87244	-19.57499	910.11780	-1396.05188	-101.96698	401.82166	-1412.31787													-500.83142	422.67068	-1350.32776	-119.51034	1223.69080	-1354.89783							-240.64554	824.59668	-1255.98877	-250.55875	847.54712	-1585.39429	13.54929	720.40161	-1300.03027	-432.46542	819.85681	-1316.27625				
27	0.260							-500.87045	1207.70532	-1432.73633	-30.54885	130.65715	-1621.75439	-26.01247	911.44269	-1390.77380	-106.81443	402.42575	-1398.87708													-504.97339	424.95334	-1342.20935	-125.28442	1225.47412	-1350.47314							-246.37112	826.55817	-1248.49573	-256.37766	848.29608	-1578.94690	7.44126	721.24744	-1294.13965	-439.20050	823.20673	-1308.45911				
28	0.270							-506.40530	1209.66357	-1428.08215	-33.90666	135.38820	-1610.28748	-32.83220	911.74280	-1384.52393	-111.53886	403.52460	-1385.87732													-512.03809	421.56448	-1345.13049	-130.87003	1226.40027	-1344.21851							-253.39697	826.76263	-1244.59888	-262.17328	849.04425	-1572.35181	0.97815	722.01233	-1287.66931	-446.66977	824.71802	-1302.72424				
29	0.280							-512.56665	1211.68896	-1422.88464	-37.45251	140.30824	-1599.13318	-41.71691	913.10083	-1376.02441	-116.38068	404.02069	-1371.41272													-514.43530	422.16913	-1340.90295	-136.58662	1228.11560	-1340.10510							-261.44803	827.98096	-1240.67737	-267.89438	849.80029	-1565.91467	-5.27146	723.12805	-1283.81287	-453.33078	826.67285	-1297.91016				
30	0.290							-517.36768	1212.11951	-1415.05347				-45.96020	914.50146	-1374.95410	-121.45149	404.58865	-1355.71130													-519.90118	420.54251	-1343.01147	-141.97479	1227.97412	-1331.37939							-267.10852	831.06128	-1229.66357	-273.48712	850.38214	-1559.28052	-10.61769	724.89130	-1278.29761	-459.90082	827.08209	-1293.56470				
31	0.300							-522.71680	1214.07349	-1410.27820	-562.72455	1176.35339	-1923.06152	-52.31456	915.12054	-1368.96814	-126.11639	405.32571	-1339.73352													-523.93854	419.49301	-1338.46094	-147.05763	1229.03564	-1326.07629							-274.14157	831.25861	-1229.67615	-279.02036	850.93750	-1552.70581	-17.58207	724.98590	-1272.06763	-466.90326	828.73230	-1286.80737				
32	0.310							-527.86108	1215.44238	-1404.28223				-58.47522	914.36176	-1361.78235	-130.68250	405.98929	-1323.24536													-525.95325	417.78546	-1340.96802	-152.28119	1229.87085	-1320.19897							-280.59055	833.26892	-1221.64368	-284.49133	851.66028	-1546.72388	-23.12008	726.14771	-1265.96692	-473.60995	830.25732	-1282.18054				
33	0.320							-533.03979	1217.34619	-1399.53174	-573.60156	1178.98425	-1912.21680	-64.26450	915.60248	-1357.45361	-135.38971	406.90738	-1307.72180													-531.40906	417.12347	-1341.51233	-157.59413	1231.48413	-1316.46729							-287.48047	833.90125	-1215.19250	-289.78595	852.19580	-1540.37000	-29.41905	726.66180	-1259.71667	-480.73709	833.21283	-1270.14331				
